<svg xmlns="http://www.w3.org/2000/svg" width="149.225" height="34.718" viewBox="0 0 149.225 34.718">
  <defs>
    <style>
      .cls-1 {
        fill: #3a1955;
      }

      .cls-2 {
        fill: #ffd000;
      }

      .cls-3 {
        fill: #f7f7f7;
      }
    </style>
  </defs>
  <g id="_2FGvjW.tif" data-name="2FGvjW.tif" transform="translate(-57.159 -118.441)">
    <g id="Group_6162" data-name="Group 6162" transform="translate(57.159 118.441)">
      <path id="Path_224283" data-name="Path 224283" class="cls-1" d="M125.346,142.539c-.139-1.538-.2-2.992-.412-4.423-1.11-7.609-7.241-12.325-14.819-11.435a13.367,13.367,0,0,0-11.443,15.246c.891,5.522,5.464,10.613,11.431,11.162,3.9.359,7.506-.36,10.528-3.047a13.659,13.659,0,0,0,3.36-4.673,1.169,1.169,0,0,0-.269-.088c-2.5-.005-5.009-.014-7.513,0a1.311,1.311,0,0,0-.66.265,6.573,6.573,0,0,1-6.978.321,4.54,4.54,0,0,1-2.371-3.332ZM78.1,142.533H97.245c-.2-1.76-.266-3.446-.6-5.078-1.733-8.541-8.66-11.814-15.279-10.679a13.321,13.321,0,0,0,3.864,26.347,12.527,12.527,0,0,0,8-3.819,14.524,14.524,0,0,0,2.617-3.946,1.565,1.565,0,0,0-.3-.08c-2.48,0-4.959-.009-7.439,0a1.068,1.068,0,0,0-.613.191,6.445,6.445,0,0,1-5.516,1.007A4.777,4.777,0,0,1,78.1,142.533ZM151.571,153.2a13.071,13.071,0,0,0,13.444-13.355,13.329,13.329,0,0,0-26.656-.012C138.281,146.953,144.179,153.462,151.571,153.2Zm-16.2-.668v-.914q0-8.3,0-16.591c0-.663-.193-1.564.152-1.921s1.249-.146,1.908-.177c.285-.013.571,0,.84,0v-5.657H135.2a14.364,14.364,0,0,1,.646-2.8c.442-.974,1.59-.707,2.439-.945V118.6a2.805,2.805,0,0,0-.48-.071c-1.039.04-2.082.044-3.115.146q-5.655.558-6.508,5.985a25.415,25.415,0,0,0-.138,2.663h-2.576v5.6a16.608,16.608,0,0,0,1.7-.011c.737-.078.965.15.96.928-.036,5.927-.019,11.854-.019,17.781v.906Zm-78.214-19.6h2.7v19.586h7.221v-3.535q0-7.515,0-15.03c0-1.028,0-1.028,1.061-1.029H70v-5.638H66.936a15.241,15.241,0,0,1,.592-2.742c.432-1.034,1.595-.791,2.528-1.034,0-1.537.017-3.046-.028-4.553,0-.149-.392-.409-.6-.409a23.251,23.251,0,0,0-3.04.138c-3.328.448-6.054,1.951-6.5,6.235-.081.775-.088,1.559-.134,2.422H57.159Zm109.265-5.416" transform="translate(-57.159 -118.501)"/>
      <path id="Path_224284" data-name="Path 224284" class="cls-1" d="M211.607,159.317H192.462a4.54,4.54,0,0,0,2.371,3.332,6.573,6.573,0,0,0,6.978-.321,1.311,1.311,0,0,1,.66-.265c2.5-.017,5.009-.008,7.513,0a1.169,1.169,0,0,1,.269.088,13.659,13.659,0,0,1-3.36,4.673c-3.021,2.686-6.626,3.405-10.528,3.047-5.967-.549-10.54-5.641-11.431-11.162a13.367,13.367,0,0,1,11.443-15.246c7.578-.89,13.709,3.825,14.819,11.435C211.4,156.325,211.468,157.779,211.607,159.317Zm-7.678-5.309c-.475-2.454-3.442-4.273-6.407-3.969-2.935.3-5.218,2.054-5.166,3.969Z" transform="translate(-143.419 -135.279)"/>
      <path id="Path_224285" data-name="Path 224285" class="cls-1" d="M105.672,159.28a4.777,4.777,0,0,0,3.886,3.945,6.445,6.445,0,0,0,5.516-1.007,1.068,1.068,0,0,1,.613-.191c2.48-.011,4.959-.006,7.439,0a1.565,1.565,0,0,1,.3.08,14.524,14.524,0,0,1-2.617,3.946,12.527,12.527,0,0,1-8,3.819,13.321,13.321,0,0,1-3.864-26.347c6.619-1.135,13.545,2.138,15.279,10.679.331,1.632.4,3.318.6,5.078Zm11.418-5.3c-.436-2.367-3.144-4.107-6.151-3.986-2.909.117-5.257,1.813-5.471,3.986Z" transform="translate(-84.731 -135.248)"/>
      <path id="Path_224286" data-name="Path 224286" class="cls-1" d="M320.958,170.169c-7.392.267-13.29-6.242-13.212-13.367a13.329,13.329,0,0,1,26.656.012A13.071,13.071,0,0,1,320.958,170.169Zm.058-6.991a6.273,6.273,0,1,0-5.978-6.269A6.187,6.187,0,0,0,321.016,163.177Z" transform="translate(-226.546 -135.475)"/>
      <path id="Path_224287" data-name="Path 224287" class="cls-1" d="M277.866,152.527H270.6v-.906c0-5.927-.016-11.854.019-17.781,0-.778-.224-1.007-.96-.928a16.608,16.608,0,0,1-1.7.011v-5.6h2.576a25.419,25.419,0,0,1,.138-2.663q.851-5.437,6.508-5.985c1.033-.1,2.076-.106,3.115-.146a2.8,2.8,0,0,1,.48.071v4.918c-.849.238-2-.029-2.439.945a14.362,14.362,0,0,0-.646,2.8h3.079v5.657c-.269,0-.555-.011-.84,0-.659.03-1.571-.172-1.908.177s-.151,1.258-.152,1.921q-.01,8.3,0,16.591Z" transform="translate(-199.651 -118.501)"/>
      <path id="Path_224288" data-name="Path 224288" class="cls-1" d="M57.159,132.963v-5.589h2.594c.045-.863.052-1.646.134-2.422.446-4.284,3.171-5.787,6.5-6.235a23.252,23.252,0,0,1,3.04-.138c.209,0,.6.26.6.409.045,1.507.028,3.016.028,4.553-.933.244-2.1,0-2.528,1.034a15.241,15.241,0,0,0-.592,2.742H70v5.638H68.146c-1.06,0-1.061,0-1.061,1.029q0,7.515,0,15.03v3.535H59.863V132.963Z" transform="translate(-57.159 -118.534)"/>
      <path id="Path_224289" data-name="Path 224289" class="cls-1" d="M394.359,146.255" transform="translate(-285.094 -137.242)"/>
      <path id="Path_224290" data-name="Path 224290" class="cls-1" d="M394.274,127.453a9.647,9.647,0,0,0,8.269,10.449c4.122.751,9.389-2.489,10.137-6.312-1.425-.082-1.4-.059-2.282,1.091a7,7,0,0,1-11.716-.6,5.969,5.969,0,0,1-.935-3.085H413.3c.22-4.834-2.315-9.831-8.183-10.481-5.109-.566-10.205,2.052-10.847,8.938" transform="translate(-285.009 -118.441)"/>
      <path id="Path_224291" data-name="Path 224291" class="cls-2" d="M477.966,129.761c-.2.631-.375,1.273-.615,1.89a9.483,9.483,0,0,1-16.638,2.307,12.079,12.079,0,0,1-.843-1.456c-.137-.252-.238-.525-.415-.924a14.344,14.344,0,0,1,1.533.019c.156.018.327.237.421.4a6.925,6.925,0,0,0,10.854,1.66,7.584,7.584,0,0,0,2.312-4.629H459.013a8.941,8.941,0,0,1,.568-4.53,8.689,8.689,0,0,1,6.493-5.791c5.262-1.141,10.725,1.634,11.729,7.571.013.075.107.136.163.2Z" transform="translate(-328.741 -118.454)"/>
      <path id="Path_224292" data-name="Path 224292" class="cls-2" d="M394.274,127.453c.642-6.886,5.738-9.5,10.847-8.938,5.868.65,8.4,5.647,8.183,10.481H397.747a5.969,5.969,0,0,0,.935,3.085,7,7,0,0,0,11.716.6c.887-1.15.857-1.173,2.282-1.091-.748,3.823-6.015,7.063-10.137,6.312a9.647,9.647,0,0,1-8.269-10.449" transform="translate(-285.009 -118.441)"/>
      <path id="Path_224293" data-name="Path 224293" class="cls-3" d="M219.751,167.89H208.177c-.051-1.915,2.231-3.669,5.167-3.969C216.309,163.617,219.276,165.436,219.751,167.89Z" transform="translate(-159.241 -149.161)"/>
      <path id="Path_224294" data-name="Path 224294" class="cls-3" d="M132.779,167.935H121.157c.215-2.172,2.562-3.869,5.471-3.986C129.634,163.829,132.343,165.568,132.779,167.935Z" transform="translate(-100.419 -149.199)"/>
      <path id="Path_224295" data-name="Path 224295" class="cls-3" d="M336.23,177.78a6.273,6.273,0,1,1,6.063-6.25A6.229,6.229,0,0,1,336.23,177.78Z" transform="translate(-241.76 -150.078)"/>
    </g>
  </g>
</svg>
