<?xml version="1.0" encoding="utf-8"?>
<svg xmlns="http://www.w3.org/2000/svg" width="68.722" height="83.341" viewBox="0 0 68.722 83.341">
  <g id="Group_6030" data-name="Group 6030" transform="translate(-176.153 -168.186)">
    <path id="Path_224142" data-name="Path 224142" d="M225.709,233.375H205.193a1.468,1.468,0,0,1-1.465-1.465V225.7c-5.6-3.447-8.784-9.593-8.784-17.022,0-10.929,9.5-20.167,20.733-20.167a20.306,20.306,0,0,1,20.393,20.167c0,7.389-3.23,13.541-8.9,17.022v6.211A1.466,1.466,0,0,1,225.709,233.375Zm-19.048-2.931h17.585v-5.586a1.474,1.474,0,0,1,.756-1.284c5.176-2.861,8.139-8.286,8.139-14.9A17.37,17.37,0,0,0,215.68,191.44c-9.648,0-17.8,7.887-17.8,17.236,0,6.75,2.852,12.034,8.028,14.9a1.468,1.468,0,0,1,.756,1.284Z" transform="translate(-5.022 -5.432)" fill="#ea8bb9"/>
    <path id="Path_224143" data-name="Path 224143" d="M227.983,256.672H210.4a1.465,1.465,0,1,1,0-2.931h17.585a1.465,1.465,0,0,1,0,2.931Z" transform="translate(-8.761 -22.867)" fill="#ea8bb9"/>
    <path id="Path_224144" data-name="Path 224144" d="M227.983,264.672H210.4a1.465,1.465,0,1,1,0-2.931h17.585a1.465,1.465,0,0,1,0,2.931Z" transform="translate(-8.761 -25.005)" fill="#ea8bb9"/>
    <path id="Path_224145" data-name="Path 224145" d="M219.7,278.671c-5.4,0-8.883-2.931-8.883-7.465a1.465,1.465,0,1,1,2.931,0c0,4.091,4.162,4.534,5.953,4.534s5.953-.44,5.953-4.534a1.465,1.465,0,1,1,2.931,0C228.579,275.74,225.091,278.671,219.7,278.671Z" transform="translate(-9.264 -27.144)" fill="#ea8bb9"/>
    <path id="Path_224146" data-name="Path 224146" d="M216.386,240.654a1.465,1.465,0,0,1-1.413-1.081l-5.985-21.982a1.465,1.465,0,1,1,2.828-.768L217.8,238.8a1.455,1.455,0,0,1-1.029,1.8A1.5,1.5,0,0,1,216.386,240.654Z" transform="translate(-8.762 -12.711)" fill="#ea8bb9"/>
    <path id="Path_224147" data-name="Path 224147" d="M226.4,240.652a1.443,1.443,0,0,1-.384-.053,1.467,1.467,0,0,1-1.032-1.8l5.985-21.982a1.465,1.465,0,0,1,2.828.765l-5.985,21.982A1.462,1.462,0,0,1,226.4,240.652Z" transform="translate(-13.037 -12.709)" fill="#ea8bb9"/>
    <path id="Path_224148" data-name="Path 224148" d="M223.53,217.236a7.915,7.915,0,0,1-3.253-.958c-1.732-.815-2.257-.929-2.925-.267a1.465,1.465,0,0,1-2.072-2.072c2.21-2.207,4.64-1.07,6.243-.314,1.747.821,2.178.87,2.732.314a1.465,1.465,0,0,1,2.072,2.072A3.809,3.809,0,0,1,223.53,217.236Z" transform="translate(-10.343 -11.885)" fill="#ea8bb9"/>
    <path id="Path_224149" data-name="Path 224149" d="M232.563,180.9a1.443,1.443,0,0,1-.384-.053,1.467,1.467,0,0,1-1.032-1.8l2.5-8.892a1.465,1.465,0,0,1,2.828.765l-2.5,8.892A1.462,1.462,0,0,1,232.563,180.9Z" transform="translate(-14.685 -0.238)" fill="#b9004d"/>
    <path id="Path_224150" data-name="Path 224150" d="M246.115,191.081a1.444,1.444,0,0,1-.312-.229,1.468,1.468,0,0,1-.046-2.077l6.437-6.622a1.465,1.465,0,0,1,2.12,2.022l-6.437,6.622A1.462,1.462,0,0,1,246.115,191.081Z" transform="translate(-18.495 -3.613)" fill="#b9004d"/>
    <path id="Path_224151" data-name="Path 224151" d="M253.21,206.411a1.423,1.423,0,0,1-.16-.352,1.466,1.466,0,0,1,.975-1.834l8.852-2.63a1.465,1.465,0,0,1,.862,2.8l-8.853,2.63A1.462,1.462,0,0,1,253.21,206.411Z" transform="translate(-20.535 -8.912)" fill="#b9004d"/>
    <path id="Path_224152" data-name="Path 224152" d="M253.648,225.6a1.412,1.412,0,0,1,.033-.386,1.466,1.466,0,0,1,1.747-1.123l9.008,2.036a1.465,1.465,0,0,1-.619,2.864l-9.007-2.037A1.461,1.461,0,0,1,253.648,225.6Z" transform="translate(-20.712 -14.933)" fill="#b9004d"/>
    <path id="Path_224153" data-name="Path 224153" d="M211.555,180.012a1.443,1.443,0,0,0,.384-.053,1.467,1.467,0,0,0,1.032-1.8l-2.5-8.892a1.465,1.465,0,0,0-2.828.765l2.5,8.892A1.462,1.462,0,0,0,211.555,180.012Z" transform="translate(-8.403 0)" fill="#b9004d"/>
    <path id="Path_224154" data-name="Path 224154" d="M196.565,190.191a1.444,1.444,0,0,0,.312-.229,1.468,1.468,0,0,0,.046-2.077l-6.437-6.622a1.472,1.472,0,0,0-2.073-.045,1.457,1.457,0,0,0-.048,2.067l6.437,6.622A1.463,1.463,0,0,0,196.565,190.191Z" transform="translate(-3.155 -3.375)" fill="#b9004d"/>
    <path id="Path_224155" data-name="Path 224155" d="M188.588,205.521a1.474,1.474,0,0,0-.815-2.187l-8.853-2.63a1.465,1.465,0,0,0-.861,2.8l8.853,2.63A1.463,1.463,0,0,0,188.588,205.521Z" transform="translate(-0.233 -8.674)" fill="#b9004d"/>
    <path id="Path_224156" data-name="Path 224156" d="M188.094,224.711a1.446,1.446,0,0,0-.033-.386,1.467,1.467,0,0,0-1.747-1.123l-9.008,2.036a1.465,1.465,0,0,0,.619,2.864l9.007-2.037A1.461,1.461,0,0,0,188.094,224.711Z" transform="translate(0 -14.696)" fill="#b9004d"/>
  </g>
</svg>
