<?xml version="1.0" encoding="utf-8" ?><svg id="Layer_1" data-name="Layer 1" xmlns="http://www.w3.org/2000/svg" xmlns:xlink="http://www.w3.org/1999/xlink" viewBox="0 0 110 45"><defs><style>.cls-1,.cls-5{fill:none;}.cls-2{clip-path:url(#clip-path);}.cls-3{fill:#401663;}.cls-4{fill:#fff;}.cls-5{stroke:#401663;stroke-width:2.13px;}</style><clipPath id="clip-path"><rect class="cls-1" width="110" height="45"/></clipPath></defs><g class="cls-2"><g class="cls-2"><path class="cls-3" d="M55.3,19.06v3.68c0,.78.26,1.12,1,1.12s1-.34,1-1.12V19.06h1.5v3.5a2.38,2.38,0,0,1-.63,1.92,3,3,0,0,1-3.7,0,2.38,2.38,0,0,1-.63-1.92v-3.5Z"/><path class="cls-3" d="M59.81,19.06h1.63L62.55,21c.36.63.69,1.26,1,1.85,0-1-.06-1.78-.06-2.27V19.06h1.46V25H63.29l-1.16-2c-.26-.45-.58-1-1-1.74.06.82.08,1.48.08,2V25H59.81Z"/></g><rect class="cls-3" x="66.03" y="19.06" width="1.51" height="5.89"/><g class="cls-2"><path class="cls-3" d="M71.16,21.66c.54,0,.8-.22.8-.72s-.27-.69-.81-.69h-1v1.41Zm-2.51-2.6h2.69c1.37,0,2.1.65,2.1,1.84a1.8,1.8,0,0,1-2,1.94H70.17V25H68.65Z"/><path class="cls-3" d="M76.91,23.87c.91,0,1.43-.65,1.43-1.86s-.53-1.86-1.43-1.86-1.42.65-1.42,1.86.52,1.86,1.42,1.86m0-5a2.82,2.82,0,0,1,3,3.1A3,3,0,1,1,74,22a2.81,2.81,0,0,1,3-3.1"/></g><polygon class="cls-3" points="80.73 19.06 82.25 19.06 82.25 23.67 85.1 23.67 85.1 24.95 80.73 24.95 80.73 19.06"/><g class="cls-2"><path class="cls-3" d="M57.38,34.88c-2.42,0-4.05-1.71-4.05-4.31S55,26.15,57.5,26.15a3.26,3.26,0,0,1,3.56,3h-2a1.49,1.49,0,0,0-1.63-1.2c-1.15,0-1.92.95-1.92,2.63s.71,2.56,1.87,2.56a1.53,1.53,0,0,0,1.68-1.36h2a3.41,3.41,0,0,1-3.65,3.13"/><path class="cls-3" d="M65.58,33.13c1.28,0,2-.91,2-2.62s-.73-2.62-2-2.62-2,.92-2,2.62.73,2.62,2,2.62m0-7c2.55,0,4.17,1.67,4.17,4.37s-1.62,4.37-4.17,4.37-4.15-1.67-4.15-4.37,1.6-4.37,4.15-4.37"/><path class="cls-3" d="M73.82,32.91c1.32,0,1.91-.75,1.91-2.4s-.59-2.4-1.91-2.4H72.67v4.8Zm-3.28-6.55h3.54c2.47,0,3.8,1.49,3.8,4.15s-1.35,4.14-4.08,4.14H70.54Z"/></g><polygon class="cls-3" points="78.68 26.36 84.98 26.36 84.98 28.06 80.8 28.06 80.8 29.52 84.62 29.52 84.62 31.18 80.8 31.18 80.8 32.96 85.12 32.96 85.12 34.65 78.68 34.65 78.68 26.36"/><g class="cls-2"><path class="cls-4" d="M33.42,18.57h6.49A2.6,2.6,0,0,0,42.52,16V8.17a2.61,2.61,0,1,1,5.21,0v22.3a9,9,0,0,1-9,9H33.59m4.07-18.26a2.61,2.61,0,0,1-2.61,2.61H28.56a2.61,2.61,0,1,1,0-5.22h6.49a2.61,2.61,0,0,1,2.61,2.61m0,5.22A2.61,2.61,0,0,1,35.05,29H28.56a2.61,2.61,0,1,1,0-5.22h6.49a2.61,2.61,0,0,1,2.61,2.61m0,5.22a2.61,2.61,0,0,1-2.61,2.61H28.56a2.61,2.61,0,0,1,0-5.22h6.49a2.61,2.61,0,0,1,2.61,2.61m0,5.21a2.61,2.61,0,0,1-2.61,2.61H28.56a2.61,2.61,0,1,1,0-5.21h6.49a2.6,2.6,0,0,1,2.61,2.6"/><path class="cls-5" d="M33.42,18.57h6.49A2.6,2.6,0,0,0,42.52,16V8.17a2.61,2.61,0,1,1,5.21,0v22.3a9,9,0,0,1-9,9H33.59m4.07-18.26a2.61,2.61,0,0,1-2.61,2.61H28.56a2.61,2.61,0,1,1,0-5.22h6.49A2.61,2.61,0,0,1,37.66,21.18Zm0,5.22A2.61,2.61,0,0,1,35.05,29H28.56a2.61,2.61,0,1,1,0-5.22h6.49A2.61,2.61,0,0,1,37.66,26.4Zm0,5.22a2.61,2.61,0,0,1-2.61,2.61H28.56a2.61,2.61,0,0,1,0-5.22h6.49A2.61,2.61,0,0,1,37.66,31.62Zm0,5.21a2.61,2.61,0,0,1-2.61,2.61H28.56a2.61,2.61,0,1,1,0-5.21h6.49A2.6,2.6,0,0,1,37.66,36.83Z"/></g></g></svg>
