<?xml version="1.0" encoding="utf-8" ?><svg id="Layer_1" data-name="Layer 1" xmlns="http://www.w3.org/2000/svg" xmlns:xlink="http://www.w3.org/1999/xlink" viewBox="0 0 110 45"><defs><style>.cls-1{fill:none;}.cls-2{clip-path:url(#clip-path);}.cls-3{fill:#401663;}</style><clipPath id="clip-path"><rect class="cls-1" width="110" height="45"/></clipPath></defs><g class="cls-2"><g class="cls-2"><path class="cls-3" d="M74.66,29.9h-.34v2.72h.34a1.28,1.28,0,0,0,1-.4,1.15,1.15,0,0,0,.3-.44,1.24,1.24,0,0,0,.1-.52,1.31,1.31,0,0,0-.4-1,1.29,1.29,0,0,0-1-.4"/><path class="cls-3" d="M39.53,30.06a.42.42,0,0,0-.18-.11.46.46,0,0,0-.21-.05H38.6V31h.54a.46.46,0,0,0,.21,0,.55.55,0,0,0,.3-.3.45.45,0,0,0,0-.2.46.46,0,0,0,0-.21.57.57,0,0,0-.12-.18"/><path class="cls-3" d="M44.75,29.9a1.51,1.51,0,0,0-.53.1,1.68,1.68,0,0,0-.43.3,1.31,1.31,0,0,0-.4,1,1.36,1.36,0,1,0,1.36-1.36"/><path class="cls-3" d="M92.93,22.11a3.15,3.15,0,0,1-3.14,3.14H20.21a3.14,3.14,0,0,1-3.13-3.14V13.5a3.12,3.12,0,0,1,3.12-3.13H89.79a3.14,3.14,0,0,1,3.14,3.14ZM76.29,32.89a2.27,2.27,0,0,1-1.63.67h-.81a.37.37,0,0,1-.18,0,.31.31,0,0,1-.15-.1.58.58,0,0,1-.11-.15.48.48,0,0,1,0-.18V29.43a.63.63,0,0,1,0-.19.76.76,0,0,1,.11-.14.4.4,0,0,1,.15-.1.37.37,0,0,1,.18,0h.81a2.24,2.24,0,0,1,1.63.68,2.45,2.45,0,0,1,.51.74,2.3,2.3,0,0,1,.16.88,2.23,2.23,0,0,1-.67,1.63m-5.68-2.1a.44.44,0,0,1,.33.14.46.46,0,0,1,0,.66.44.44,0,0,1-.33.14H69.25v.89h2a.49.49,0,0,1,.34.14.48.48,0,0,1,0,.66.49.49,0,0,1-.34.14H68.78a.52.52,0,0,1-.18,0,.61.61,0,0,1-.26-.26.48.48,0,0,1,0-.18V29.43a.57.57,0,0,1,0-.18.42.42,0,0,1,.11-.15.4.4,0,0,1,.15-.1.37.37,0,0,1,.18,0h2.44a.49.49,0,0,1,.34.14.49.49,0,0,1,.13.33.51.51,0,0,1-.13.34.48.48,0,0,1-.34.13h-2v.89Zm-4-1a.44.44,0,0,1-.33.13h-.85v3.19a.45.45,0,0,1-.14.33.44.44,0,0,1-.33.14.48.48,0,0,1-.47-.47V29.9h-.85a.44.44,0,0,1-.33-.13.48.48,0,0,1-.14-.34.48.48,0,0,1,.47-.47h2.64a.45.45,0,0,1,.33.14.42.42,0,0,1,.14.33.44.44,0,0,1-.14.34m-7.34,2.45a1.29,1.29,0,0,0,1,.4,1.32,1.32,0,0,0,.85-.3.49.49,0,0,1,.28-.09.43.43,0,0,1,.19,0,.42.42,0,0,1,.14.09l.11.15a.58.58,0,0,1,0,.19.44.44,0,0,1-.15.33,2.23,2.23,0,0,1-1.46.53,2.29,2.29,0,0,1-2.3-2.3,2.3,2.3,0,0,1,2.3-2.3,2.26,2.26,0,0,1,1.47.54.45.45,0,0,1,.15.34.37.37,0,0,1,0,.18.4.4,0,0,1-.1.15.31.31,0,0,1-.15.1.47.47,0,0,1-.5-.09,1.52,1.52,0,0,0-.38-.2,1.33,1.33,0,0,0-.45-.08,1.37,1.37,0,0,0-1.36,1.36,1.28,1.28,0,0,0,.4,1M55.5,30.79a.47.47,0,0,1,.33.14.46.46,0,0,1,0,.66.47.47,0,0,1-.33.14H54.14v.89h2a.46.46,0,0,1,.34.14.46.46,0,0,1,0,.66.46.46,0,0,1-.34.14H53.67a.58.58,0,0,1-.19,0,.53.53,0,0,1-.15-.11.4.4,0,0,1-.1-.15.48.48,0,0,1,0-.18V29.43a.57.57,0,0,1,0-.18.4.4,0,0,1,.1-.15.49.49,0,0,1,.15-.1.41.41,0,0,1,.19,0H56.1a.46.46,0,0,1,.34.14.45.45,0,0,1,.14.33.48.48,0,0,1-.14.34.45.45,0,0,1-.34.13h-2v.89Zm-4-1a.46.46,0,0,1-.33.13h-.85v3.19a.45.45,0,0,1-.14.33.46.46,0,0,1-.34.14.47.47,0,0,1-.33-.14.45.45,0,0,1-.14-.33V29.9h-.84a.47.47,0,0,1-.34-.13.48.48,0,0,1-.14-.34.45.45,0,0,1,.14-.33.48.48,0,0,1,.34-.14h2.64a.47.47,0,0,1,.33.14.44.44,0,0,1,.13.33.47.47,0,0,1-.13.34m-5.16,3.12a2.32,2.32,0,0,1-3.26,0,2.23,2.23,0,0,1-.67-1.63,2.19,2.19,0,0,1,.67-1.62,2.31,2.31,0,0,1,3.76.74,2.3,2.3,0,0,1,.17.88,2.27,2.27,0,0,1-.67,1.63m-5.58.39a.71.71,0,0,1-.1.14.57.57,0,0,1-.16.11.52.52,0,0,1-.18,0,.49.49,0,0,1-.4-.22l-.87-1.4H38.6v1.15a.45.45,0,0,1-.14.33.48.48,0,0,1-.67,0,.5.5,0,0,1-.14-.33V29.43a.58.58,0,0,1,0-.18.65.65,0,0,1,.1-.15.36.36,0,0,1,.15-.1.41.41,0,0,1,.19,0h1a1.48,1.48,0,0,1,.59.12,1.86,1.86,0,0,1,.47.32,1.48,1.48,0,0,1,.31.47,1.4,1.4,0,0,1,.12.58,1.74,1.74,0,0,1-.05.39,1.84,1.84,0,0,1-.15.36,1.42,1.42,0,0,1-.25.31,1.07,1.07,0,0,1-.16.14l.74,1.18a.51.51,0,0,1,.07.26.58.58,0,0,1,0,.19m-5.37-1.61a1.51,1.51,0,0,1-1.12.47H34v1a.48.48,0,0,1-.47.47.44.44,0,0,1-.33-.14.45.45,0,0,1-.14-.33V29.43a.39.39,0,0,1,0-.18.38.38,0,0,1,.09-.15.49.49,0,0,1,.15-.1.41.41,0,0,1,.19,0h.81a1.52,1.52,0,0,1,.42.06,1.61,1.61,0,0,1,.38.16,1.54,1.54,0,0,1,.32.25,1.46,1.46,0,0,1,.25.32,1.39,1.39,0,0,1,.22.8,1.54,1.54,0,0,1-.47,1.12m57-23.94H17.57a3.13,3.13,0,0,0-3.13,3.13V34.14a3.13,3.13,0,0,0,3.13,3.13H92.42a3.14,3.14,0,0,0,3.14-3.13V10.86a3.14,3.14,0,0,0-3.14-3.13"/><path class="cls-3" d="M34.77,30.09a.77.77,0,0,0-.21-.14.7.7,0,0,0-.25-.05H34v1.29h.34a.53.53,0,0,0,.25-.05.74.74,0,0,0,.21-.13,1.1,1.1,0,0,0,.14-.21.8.8,0,0,0,0-.5,1.1,1.1,0,0,0-.14-.21"/><path class="cls-3" d="M38.34,19.63a.14.14,0,0,1-.14-.14v-5a.14.14,0,1,1,.28,0v5a.14.14,0,0,1-.14.14"/><path class="cls-3" d="M27.41,16.28v.07a1.68,1.68,0,0,1,.53-.31,1.79,1.79,0,0,1,.62-.1,1.67,1.67,0,0,1,.31,0,1,1,0,0,1,.31.07.59.59,0,0,1,.23.14.31.31,0,0,1,.1.23.5.5,0,0,1,0,.13.31.31,0,0,1-.08.11.28.28,0,0,1-.11.08.27.27,0,0,1-.13,0l-.15,0a1.09,1.09,0,0,0-.45-.08,1.13,1.13,0,0,0-.45.09,1.31,1.31,0,0,0-.37.24,1.34,1.34,0,0,0-.25.37,1.12,1.12,0,0,0-.08.45v1.51a.34.34,0,0,1-.11.24.33.33,0,0,1-.24.1.3.3,0,0,1-.24-.1.34.34,0,0,1-.11-.24v-3a.32.32,0,0,1,.11-.24.3.3,0,0,1,.24-.1.33.33,0,0,1,.24.1.32.32,0,0,1,.11.24"/><path class="cls-3" d="M25.15,18.23a1.31,1.31,0,0,1-.24.37,1.25,1.25,0,0,1-.38.25,1.06,1.06,0,0,1-.45.09,1.13,1.13,0,0,1-.45-.09,1.15,1.15,0,0,1-.37-.25,1,1,0,0,1-.24-.37,1,1,0,0,1-.09-.45,1,1,0,0,1,.09-.44,1,1,0,0,1,.24-.37,1.15,1.15,0,0,1,.37-.25,1.13,1.13,0,0,1,.45-.09,1.06,1.06,0,0,1,.45.09,1.09,1.09,0,0,1,.38.25,1.18,1.18,0,0,1,.24.37,1.12,1.12,0,0,1,.09.44,1.13,1.13,0,0,1-.09.45m.78-1.95a.3.3,0,0,0-.1-.24.34.34,0,0,0-.24-.11.34.34,0,0,0-.25.11.33.33,0,0,0-.1.24v.06l-.07-.05a2,2,0,0,0-.45-.24h0a1.79,1.79,0,0,0-.62-.1,1.84,1.84,0,0,0-1.84,1.84,1.79,1.79,0,0,0,.54,1.31,1.77,1.77,0,0,0,1.3.54,1.79,1.79,0,0,0,.62-.1,2.05,2.05,0,0,0,.54-.31v.07a.37.37,0,0,0,.1.24.33.33,0,0,0,.25.1.34.34,0,0,0,.34-.34V17.78h0"/><path class="cls-3" d="M34.93,18.23a1.2,1.2,0,0,1-.61.62,1.13,1.13,0,0,1-.45.09A1.15,1.15,0,0,1,33,18.6a1.18,1.18,0,0,1-.24-.37,1.13,1.13,0,0,1-.09-.45,1.12,1.12,0,0,1,.09-.44A1.08,1.08,0,0,1,33,17a1.15,1.15,0,0,1,.83-.34,1.13,1.13,0,0,1,.45.09,1,1,0,0,1,.36.25,1.05,1.05,0,0,1,.25.37,1.12,1.12,0,0,1,.09.44,1.13,1.13,0,0,1-.09.45m.79-1.95a.3.3,0,0,0-.11-.24.34.34,0,0,0-.24-.11.38.38,0,0,0-.35.35v.06l-.08-.06a1.63,1.63,0,0,0-.43-.23h0a1.89,1.89,0,0,0-1.93.44,1.77,1.77,0,0,0-.54,1.3,1.84,1.84,0,0,0,1.85,1.85,1.74,1.74,0,0,0,.61-.1,2.05,2.05,0,0,0,.54-.31v.07a.34.34,0,0,0,.11.24.3.3,0,0,0,.24.1.33.33,0,0,0,.24-.1.34.34,0,0,0,.11-.24V17.78h0"/><path class="cls-3" d="M30.12,15.93V14.69a.33.33,0,0,1,.1-.25.37.37,0,0,1,.25-.09.36.36,0,0,1,.24.09.33.33,0,0,1,.1.25v3.6a.58.58,0,0,0,.66.65.37.37,0,0,1,.24.1.34.34,0,0,1,.1.23.4.4,0,0,1-.1.26.33.33,0,0,1-.24.1,1.19,1.19,0,0,1-1.35-1.34V16.62"/><path class="cls-3" d="M41.65,17.78a1.14,1.14,0,0,0,.1.45,1.18,1.18,0,0,0,.24.37,1.34,1.34,0,0,0,.37.25,1.14,1.14,0,0,0,.46.09,1.13,1.13,0,0,0,.45-.09,1.2,1.2,0,0,0,.61-.62,1.13,1.13,0,0,0,.09-.45,1.12,1.12,0,0,0-.09-.44,1.05,1.05,0,0,0-.25-.37,1,1,0,0,0-.36-.25,1.13,1.13,0,0,0-.45-.09A1.15,1.15,0,0,0,42,17a1.08,1.08,0,0,0-.24.37,1.13,1.13,0,0,0-.1.44m1.17,1.85a1.81,1.81,0,0,1-1.17-.4v1.64a.32.32,0,0,1-.09.25.37.37,0,0,1-.25.09.32.32,0,0,1-.24-.09.33.33,0,0,1-.1-.25V17.78a1.77,1.77,0,0,1,.54-1.3,1.87,1.87,0,0,1,3,.59,1.87,1.87,0,0,1,.13.71,1.77,1.77,0,0,1-.54,1.31,1.83,1.83,0,0,1-.6.41,1.82,1.82,0,0,1-.7.13"/><path class="cls-3" d="M46,16.28v.07a1.84,1.84,0,0,1,.54-.31,1.79,1.79,0,0,1,.62-.1,1.67,1.67,0,0,1,.31,0,1.08,1.08,0,0,1,.31.07.59.59,0,0,1,.23.14.3.3,0,0,1,.09.23.28.28,0,0,1,0,.13.29.29,0,0,1-.07.12.41.41,0,0,1-.11.07.29.29,0,0,1-.14,0,.51.51,0,0,1-.14,0,1.23,1.23,0,0,0-.9,0,1.08,1.08,0,0,0-.37.24,1.34,1.34,0,0,0-.25.37,1.13,1.13,0,0,0-.09.45v1.51a.34.34,0,0,1-.34.34.33.33,0,0,1-.25-.1.33.33,0,0,1-.1-.24v-3a.33.33,0,0,1,.1-.24.33.33,0,0,1,.25-.1.34.34,0,0,1,.34.34"/><path class="cls-3" d="M50,16.63a1.13,1.13,0,0,0-.45.09,1.15,1.15,0,0,0-.37.25,1.08,1.08,0,0,0-.24.37,1.12,1.12,0,0,0-.09.44,1.13,1.13,0,0,0,.09.45,1.18,1.18,0,0,0,.24.37,1.34,1.34,0,0,0,.37.25,1.13,1.13,0,0,0,.45.09,1.18,1.18,0,0,0,.46-.09,1.2,1.2,0,0,0,.61-.62,1.13,1.13,0,0,0,.09-.45,1.12,1.12,0,0,0-.09-.44,1.05,1.05,0,0,0-.25-.37,1,1,0,0,0-.36-.25,1.18,1.18,0,0,0-.46-.09m1.85,1.15a1.85,1.85,0,0,1-3.15,1.31,1.8,1.8,0,0,1-.55-1.31,1.85,1.85,0,0,1,3.16-1.3,1.87,1.87,0,0,1,.4.59,1.7,1.7,0,0,1,.14.71"/><path class="cls-3" d="M53.16,17.78a1.13,1.13,0,0,0,.09.45,1.18,1.18,0,0,0,.24.37,1.34,1.34,0,0,0,.37.25,1.14,1.14,0,0,0,.46.09,1.13,1.13,0,0,0,.45-.09,1.34,1.34,0,0,0,.37-.25,1.12,1.12,0,0,0,.24-.37,1,1,0,0,0,.09-.45,1,1,0,0,0-.09-.44,1,1,0,0,0-.24-.37,1.15,1.15,0,0,0-.37-.25,1.13,1.13,0,0,0-.45-.09,1.15,1.15,0,0,0-.83.34,1.08,1.08,0,0,0-.24.37,1.12,1.12,0,0,0-.09.44m1.16,1.85a1.76,1.76,0,0,1-1.16-.4v1.64a.33.33,0,0,1-.1.25.37.37,0,0,1-.25.09.34.34,0,0,1-.24-.09.33.33,0,0,1-.1-.25V17.78a1.77,1.77,0,0,1,.54-1.3,1.81,1.81,0,0,1,1.31-.54A1.9,1.9,0,0,1,56,17.07a1.87,1.87,0,0,1,.13.71,1.77,1.77,0,0,1-.54,1.31,1.83,1.83,0,0,1-.6.41,1.78,1.78,0,0,1-.7.13"/><path class="cls-3" d="M59.71,17.44a1,1,0,0,0-.17-.33,1.24,1.24,0,0,0-.25-.26,1.37,1.37,0,0,0-.32-.16,1.19,1.19,0,0,0-.37-.06,1.15,1.15,0,0,0-.37.06,1.13,1.13,0,0,0-.58.42.84.84,0,0,0-.16.33Zm-.15,1.15a.37.37,0,0,1,.25.1.35.35,0,0,1,.09.25.36.36,0,0,1-.09.24,1.85,1.85,0,0,1-3.06-1.4,1.77,1.77,0,0,1,.54-1.3,1.85,1.85,0,0,1,2.61,0,1.66,1.66,0,0,1,.41.59,1.87,1.87,0,0,1,.14.71.33.33,0,0,1-.11.25.3.3,0,0,1-.24.1H57.49a1,1,0,0,0,.16.33,1.13,1.13,0,0,0,.58.42,1.15,1.15,0,0,0,.37.06,1.34,1.34,0,0,0,.4-.06,1.12,1.12,0,0,0,.33-.2.39.39,0,0,1,.23-.09"/><path class="cls-3" d="M61.74,16.28v.07a1.72,1.72,0,0,1,.54-.31,1.79,1.79,0,0,1,.62-.1,1.72,1.72,0,0,1,.31,0,1.08,1.08,0,0,1,.31.07.59.59,0,0,1,.23.14.3.3,0,0,1,.09.23.19.19,0,0,1,0,.13.29.29,0,0,1-.07.12l-.1.07-.14,0a.43.43,0,0,1-.14,0,1.21,1.21,0,0,0-.46-.08,1.13,1.13,0,0,0-.45.09,1.31,1.31,0,0,0-.37.24,1.6,1.6,0,0,0-.25.37,1.13,1.13,0,0,0-.09.45v1.51a.33.33,0,0,1-.1.24.3.3,0,0,1-.24.1.33.33,0,0,1-.25-.1.37.37,0,0,1-.1-.24v-3a.37.37,0,0,1,.1-.24.33.33,0,0,1,.25-.1.3.3,0,0,1,.24.1.33.33,0,0,1,.1.24"/><path class="cls-3" d="M64.69,16h.38v-1.3a.34.34,0,0,1,.35-.35.35.35,0,0,1,.24.1.33.33,0,0,1,.1.25V16h.64a.34.34,0,0,1,.34.35.31.31,0,0,1-.1.24.3.3,0,0,1-.24.1h-.64v1.61a.58.58,0,0,0,.66.65.3.3,0,0,1,.24.1.33.33,0,0,1,.1.24.33.33,0,0,1-.1.25.3.3,0,0,1-.24.1,1.19,1.19,0,0,1-1.35-1.34V16.68h-.38a.33.33,0,0,1-.24-.1.31.31,0,0,1-.1-.24.33.33,0,0,1,.1-.25.37.37,0,0,1,.24-.1"/><path class="cls-3" d="M68.48,19.29l-1.19-2.85a.45.45,0,0,1,0-.16.27.27,0,0,1,0-.13l.07-.11.11-.08.14,0a.33.33,0,0,1,.19.06.35.35,0,0,1,.14.17l.92,2.21.93-2.22A.28.28,0,0,1,69.9,16a.28.28,0,0,1,.2-.06l.14,0,.11.08a.26.26,0,0,1,.07.11.28.28,0,0,1,0,.13.34.34,0,0,1,0,.16L68.52,21a.39.39,0,0,1-.14.17.31.31,0,0,1-.19.06.35.35,0,0,1-.31-.49"/><path class="cls-3" d="M76.26,19.29a.34.34,0,0,1-.34.34.3.3,0,0,1-.24-.1.33.33,0,0,1-.1-.24V17.41a.73.73,0,0,0-.07-.3.72.72,0,0,0-.16-.25.85.85,0,0,0-.25-.17.78.78,0,0,0-.31-.06.77.77,0,0,0-.3.06.81.81,0,0,0-.42.42.73.73,0,0,0-.06.3v1.88a.34.34,0,0,1-.34.34.33.33,0,0,1-.25-.1.37.37,0,0,1-.1-.24V17.41a.73.73,0,0,0-.06-.3.92.92,0,0,0-.17-.25.74.74,0,0,0-.25-.17.8.8,0,0,0-.86.17.89.89,0,0,0-.16.25.73.73,0,0,0-.06.3v1.88a.33.33,0,0,1-.1.24.33.33,0,0,1-.25.1.31.31,0,0,1-.24-.1.33.33,0,0,1-.1-.24v-3a.33.33,0,0,1,.1-.24.3.3,0,0,1,.24-.1.39.39,0,0,1,.21.06.3.3,0,0,1,.12.17,1.52,1.52,0,0,1,1.42-.1,1.58,1.58,0,0,1,.51.39,1.43,1.43,0,0,1,1.12-.52,1.49,1.49,0,0,1,1.47,1.47"/><path class="cls-3" d="M82.06,16.28v.07a1.68,1.68,0,0,1,.53-.31,1.87,1.87,0,0,1,.62-.1,1.67,1.67,0,0,1,.31,0,.94.94,0,0,1,.31.07.72.72,0,0,1,.24.14.34.34,0,0,1,.09.23.28.28,0,0,1,0,.13.5.5,0,0,1-.08.12.23.23,0,0,1-.11.07.28.28,0,0,1-.13,0,.56.56,0,0,1-.15,0,1.09,1.09,0,0,0-.45-.08,1.13,1.13,0,0,0-.45.09,1.06,1.06,0,0,0-.61.61,1.13,1.13,0,0,0-.09.45v1.51a.34.34,0,0,1-.11.24.34.34,0,0,1-.48,0,.34.34,0,0,1-.11-.24v-3a.34.34,0,0,1,.11-.24A.34.34,0,0,1,82,16a.34.34,0,0,1,.11.24"/><path class="cls-3" d="M87.67,19l-1.44-1.63,1-.9a.32.32,0,0,0,0-.42.28.28,0,0,0-.09-.1.33.33,0,0,0-.12-.05h-.13a.33.33,0,0,0-.18.08l-1.26,1.17v-2.5a.32.32,0,0,0-.09-.24.34.34,0,0,0-.25-.11.3.3,0,0,0-.24.11.3.3,0,0,0-.1.24v4.59a.33.33,0,0,0,.1.24.3.3,0,0,0,.24.1.33.33,0,0,0,.25-.1.36.36,0,0,0,.09-.24V18.12l0,0,.24-.22,1.47,1.65a.32.32,0,0,0,.23.09l.14,0a.39.39,0,0,0,.1-.08.44.44,0,0,0,.08-.11.28.28,0,0,0,0-.13.37.37,0,0,0-.1-.24"/><path class="cls-3" d="M79.8,18.24a1.15,1.15,0,0,1-.25.37,1.1,1.1,0,0,1-.37.25,1.13,1.13,0,0,1-.45.09,1.22,1.22,0,0,1-.46-.09,1,1,0,0,1-.36-.25,1.05,1.05,0,0,1-.25-.37,1.17,1.17,0,0,1,0-.9,1.15,1.15,0,0,1,.25-.37,1.36,1.36,0,0,1,.36-.25,1.22,1.22,0,0,1,.46-.09,1.13,1.13,0,0,1,.45.09,1.27,1.27,0,0,1,.37.25,1.15,1.15,0,0,1,.25.37,1.17,1.17,0,0,1,0,.9m.78-2a.34.34,0,0,0-.34-.34A.33.33,0,0,0,80,16a.37.37,0,0,0-.1.24v.07l-.07-.05a2.14,2.14,0,0,0-.32-.2h0l-.12-.05h0a1.85,1.85,0,1,0-.62,3.59,1.83,1.83,0,0,0,.62-.1,1.72,1.72,0,0,0,.54-.31v.07a.34.34,0,0,0,.35.34.33.33,0,0,0,.24-.1.3.3,0,0,0,.1-.24V17.79h0"/></g></g></svg>
