<?xml version="1.0" encoding="utf-8" ?><svg id="Layer_1" data-name="Layer 1" xmlns="http://www.w3.org/2000/svg" xmlns:xlink="http://www.w3.org/1999/xlink" viewBox="0 0 110 45"><defs><style>.cls-1{fill:none;}.cls-2{clip-path:url(#clip-path);}.cls-3{fill:#401663;}</style><clipPath id="clip-path"><rect class="cls-1" width="110" height="45"/></clipPath></defs><g class="cls-2"><g class="cls-2"><path class="cls-3" d="M28,22.31c-1.61-.27-2.59-.49-2.59-1.51,0-.35,0-1.38,2.13-1.38,1.38,0,2.16.45,2.31,1.35A.34.34,0,0,0,30,21a.28.28,0,0,0,.23.05l1-.17a.31.31,0,0,0,.25-.32c-.05-.61-.47-2.6-4-2.6-2.32,0-3.7,1.09-3.7,2.92,0,2.22,2.05,2.57,3.7,2.85s2.59.49,2.59,1.51c0,.7-.29,1.36-2.36,1.36a5.45,5.45,0,0,1-3.2-.95.33.33,0,0,0-.29,0,.34.34,0,0,0-.19.23l-.19.93a.31.31,0,0,0,.13.31,6.39,6.39,0,0,0,3.75,1c1.82,0,4-.5,4-2.9,0-2.21-2.05-2.56-3.7-2.84"/><path class="cls-3" d="M39.34,20.33v3.76a2.47,2.47,0,0,1-2.74,2.46c-2.25,0-2.72-1.88-2.72-3.46,0-2.29,1.13-3.65,3-3.65a3.31,3.31,0,0,1,2.44.89M42,26.47c-.4,0-.76,0-1.06,0v-8a.31.31,0,0,0-.31-.31h-.81a.32.32,0,0,0-.31.26l0,.29a4.71,4.71,0,0,0-2.66-.74c-2.79,0-4.59,2-4.59,5.16s1.52,5,4.17,5a4,4,0,0,0,3-1.14A1.39,1.39,0,0,0,41,28,6.05,6.05,0,0,0,42,27.88a.32.32,0,0,0,.26-.29l0-.79a.27.27,0,0,0-.08-.23.32.32,0,0,0-.22-.1"/><path class="cls-3" d="M48.51,13.92a5.19,5.19,0,0,0-1.95-.35c-1.81,0-2.77,1-2.77,3v1.57H42.32a.31.31,0,0,0-.31.31v.85a.31.31,0,0,0,.31.31h1.47v7.93a.31.31,0,0,0,.31.31h1a.3.3,0,0,0,.3-.31V19.59h2.76a.31.31,0,0,0,.31-.31v-.85a.31.31,0,0,0-.31-.31H45.41V16.53c0-1,.4-1.43,1.32-1.43a3.61,3.61,0,0,1,1.45.27.31.31,0,0,0,.28,0,.3.3,0,0,0,.15-.23l.1-.89a.32.32,0,0,0-.2-.32"/><path class="cls-3" d="M53,19.44c1.38,0,2.14.57,2.14,1.62s-.75,1.57-5.1,1.73c.1-2.91,1.88-3.35,3-3.35m3.62,6.39a.31.31,0,0,0-.2-.23.33.33,0,0,0-.3,0,5.3,5.3,0,0,1-3.06.9,2.62,2.62,0,0,1-2.92-2.33c4.39-.17,6.62-.75,6.62-3.25,0-2.24-1.93-3-3.74-3-2.85,0-4.63,2-4.63,5.12s1.63,5,4.57,5a6.09,6.09,0,0,0,3.73-1,.35.35,0,0,0,.12-.31Z"/><path class="cls-3" d="M65.83,20.33v3.76a2.47,2.47,0,0,1-2.74,2.46c-2.25,0-2.73-1.88-2.73-3.46,0-2.29,1.14-3.65,3-3.65a3.31,3.31,0,0,1,2.44.89m2.67,6.14c-.39,0-.75,0-1,0v-8a.31.31,0,0,0-.31-.31h-.81a.3.3,0,0,0-.31.26l0,.29a4.72,4.72,0,0,0-2.67-.74c-2.78,0-4.58,2-4.58,5.16s1.52,5,4.17,5a4,4,0,0,0,3-1.14A1.38,1.38,0,0,0,67.46,28a6.2,6.2,0,0,0,1.06-.08.31.31,0,0,0,.25-.29l0-.79a.27.27,0,0,0-.08-.23.33.33,0,0,0-.23-.1"/><path class="cls-3" d="M76,20.37v3.27a2.43,2.43,0,0,1-2.68,2.45c-1.82,0-2.78-1.11-2.78-3.23s1.15-3.42,3-3.42a3.23,3.23,0,0,1,2.44.93m2.58-2.26a4.07,4.07,0,0,0-.93-.1,1.53,1.53,0,0,0-1.43.73,4.61,4.61,0,0,0-2.73-.81c-2.75,0-4.59,2-4.59,4.93s1.59,4.74,4.26,4.74a3.87,3.87,0,0,0,2.84-1v.94c0,1.64-.86,2.4-2.7,2.4a7.23,7.23,0,0,1-2.86-.58.31.31,0,0,0-.28,0,.29.29,0,0,0-.14.24l-.06,1a.31.31,0,0,0,.17.3,7.76,7.76,0,0,0,3.22.58c2.83,0,4.27-1.37,4.27-4.06V19.59a3.59,3.59,0,0,1,.92-.1.28.28,0,0,0,.22-.09.31.31,0,0,0,.09-.22l0-.78a.29.29,0,0,0-.25-.29"/><path class="cls-3" d="M83.72,19.44c1.37,0,2.13.57,2.13,1.62s-.74,1.57-5.1,1.73c.1-2.91,1.89-3.35,3-3.35m3.61,6.39a.29.29,0,0,0-.2-.23.3.3,0,0,0-.29,0,5.31,5.31,0,0,1-3.07.9,2.63,2.63,0,0,1-2.92-2.33c4.39-.17,6.62-.75,6.62-3.25,0-2.24-1.93-3-3.73-3-2.86,0-4.63,2-4.63,5.12s1.62,5,4.57,5a6.08,6.08,0,0,0,3.72-1,.3.3,0,0,0,.12-.31Z"/><path class="cls-3" d="M98.66,26.47c-.45,0-.79,0-1,0V22c0-2.62-1.32-4.06-3.72-4.06a4.09,4.09,0,0,0-3.11,1.32A1.51,1.51,0,0,0,89.13,18a3.16,3.16,0,0,0-.81.12.31.31,0,0,0-.22.29l0,.78a.31.31,0,0,0,.31.31,2.75,2.75,0,0,1,.83.09v7.94a.31.31,0,0,0,.31.31h1a.31.31,0,0,0,.31-.31V22.1a2.77,2.77,0,0,1,2.82-2.65c1.6,0,2.34.84,2.34,2.63v4.55c0,1.11.55,1.33,1.5,1.33a5.81,5.81,0,0,0,1.18-.08.32.32,0,0,0,.25-.29l0-.79a.27.27,0,0,0-.08-.23.32.32,0,0,0-.22-.1"/><path class="cls-3" d="M104.39,18.12h-2.7V15.78a.31.31,0,0,0-.31-.31h-1a.31.31,0,0,0-.31.31v2.34h-1.4a.31.31,0,0,0-.31.31v.85a.31.31,0,0,0,.31.31h1.4v5.86c0,1.83.71,2.6,2.37,2.6a4.93,4.93,0,0,0,1.81-.32.3.3,0,0,0,.2-.31l-.07-.89a.3.3,0,0,0-.15-.24.29.29,0,0,0-.27,0l0,0a3.24,3.24,0,0,1-1.3.26c-.54,0-.92-.08-.92-1.1V19.59h2.7a.31.31,0,0,0,.31-.31v-.85a.31.31,0,0,0-.31-.31"/><path class="cls-3" d="M17.48,19.18A7.7,7.7,0,0,1,20,23.11l0-.13c0-.15.08-.37.11-.52a.59.59,0,0,0,0-.13l0-.07h0l0-.15v0a.77.77,0,0,0,0-.15l0-.16c0-.05,0-.1,0-.14v-.1a.49.49,0,0,1,0-.12v-.14c0-.05,0-.1,0-.16s0-.08,0-.12v-.12a1,1,0,0,0,0-.17v-.27a10.54,10.54,0,0,0-.55-2.79,9.56,9.56,0,0,0-3.65-2.21l-.11,0-.18-.06-.18-.06-.09,0-.47-.13h0a10,10,0,0,0-4.79,0l-.08,0a9.15,9.15,0,0,0-.93.29,14.12,14.12,0,0,0-1.16,3.69l0,0A6.84,6.84,0,0,1,11,17.78a7.29,7.29,0,0,1,6.44,1.4Z"/></g><path class="cls-3" d="M12.78,27.34Z"/><g class="cls-2"><path class="cls-3" d="M5.65,23.05A10.4,10.4,0,0,0,8.1,27.37a7.46,7.46,0,0,0,4.76-.06h0a7.38,7.38,0,0,1-4.52-4.84,7,7,0,0,1-.14-3.31h0a7.67,7.67,0,0,0-2.55,3.88"/><path class="cls-3" d="M10.53,15.12l-.47.12-.09,0-.18.05-.18.06-.11,0a10.52,10.52,0,0,0-3.8,2.34,9.83,9.83,0,0,0-.4,2.65v.28a1,1,0,0,0,0,.17h0v.39s0,.09,0,.13,0,.09,0,.13v.08h0c0,.05,0,.1,0,.15l0,.16a.59.59,0,0,0,0,.14v0l0,.16h0l0,.07a.69.69,0,0,0,0,.13c0,.15.08.32.12.47l0,.13A7.63,7.63,0,0,1,8.2,19.17h0a7.25,7.25,0,0,1,2.32-4"/></g><path class="cls-3" d="M8.09,27.36Z"/><g class="cls-2"><path class="cls-3" d="M17.59,27.57a8.76,8.76,0,0,1-4.7-.25h0a7.7,7.7,0,0,1-4.77.05,10.16,10.16,0,0,0,2.42,1.85h0a10,10,0,0,0,1.67.75l.05,0,.24.08.31.09.33-.09.19,0,.13,0,.28-.09h0a10.31,10.31,0,0,0,3.81-2.28Z"/><polygon class="cls-3" points="8.09 27.36 8.1 27.37 8.09 27.37 8.09 27.36"/></g><path class="cls-3" d="M8.09,27.36Z"/><path class="cls-3" d="M8.09,27.36Z"/><g class="cls-2"><path class="cls-3" d="M5.66,23.09h0m0,0h0m0,0h0m0,0h0m0,0h0"/><path class="cls-3" d="M5.65,23.05h0v0h0v0h0a10.28,10.28,0,0,0,2.4,4.19h0a7.57,7.57,0,0,0,2.31.35,7.85,7.85,0,0,0,2.45-.39h0l0,0h0l0,0h-.19a7.38,7.38,0,0,1-3.83-3.79,20.59,20.59,0,0,0-3-.32"/><polyline class="cls-3" points="8.1 27.37 8.1 27.37 8.1 27.37"/><path class="cls-3" d="M12.85,27.32a7.85,7.85,0,0,1-2.45.39,7.57,7.57,0,0,1-2.31-.35h0a10.27,10.27,0,0,0,2.41,1.84h0a10,10,0,0,0,1.67.75l.05,0,.24.07.31.1.33-.09.19,0,.13,0,.28-.09h0a10.45,10.45,0,0,0,3.81-2.28l0,0a5.73,5.73,0,0,1-1.83.28,9.39,9.39,0,0,1-2.91-.52"/><path class="cls-3" d="M10.53,15.12Z"/><polygon class="cls-3" points="10.53 15.12 10.53 15.12 10.53 15.12 10.53 15.12"/><polyline class="cls-3" points="10.53 15.12 10.49 15.13 10.53 15.12 10.53 15.12"/></g><polygon class="cls-3" points="10.47 15.13 10.47 15.13 10.49 15.13 10.47 15.13"/><g class="cls-2"><path class="cls-3" d="M15.92,15.35l.15.05.11,0a9.56,9.56,0,0,1,3.65,2.21,9.53,9.53,0,0,0-3.63-2.2l-.11,0-.17-.05"/><path class="cls-3" d="M15.17,15.14a7.38,7.38,0,0,1,2.15,3.37c.06.22.13.46.18.69l2.33-1.56a9.56,9.56,0,0,0-3.65-2.21l-.11,0-.15-.05h0l-.18-.05-.09,0-.4-.11h-.07Z"/><path class="cls-3" d="M20.38,20.52v.19a.86.86,0,0,1,0,.16V21s0,.08,0,.13a.76.76,0,0,1,0,.15v.14s0,.08,0,.12v.1l0,.14,0,.16a.77.77,0,0,1,0,.15v0l0,.15h0v.07l0,.13,0,.08v0a.36.36,0,0,1,0-.1l0-.13v-.07h0l0-.16v0a.59.59,0,0,0,0-.14l0-.16,0-.15h0v-.08c0-.05,0-.09,0-.13v-.13a.86.86,0,0,0,0-.16s0-.09,0-.13v-.1h0a1,1,0,0,0,0-.17v-.19"/><path class="cls-3" d="M20.38,20.44v0Zm-.22,2.1c0,.13-.06.27-.09.39L20,23h0l0-.09c0-.12.06-.24.09-.37v0"/><path class="cls-3" d="M10.53,15.12h0a7.35,7.35,0,0,0-2.32,4c0-.22.1-.43.17-.65a7.3,7.3,0,0,1,2.15-3.37m-2.32,4h0m0,0h0"/><path class="cls-3" d="M10.53,15.12h-.06l-.38.1h0l-.09,0-.18.05-.18.06-.11,0a10.52,10.52,0,0,0-3.8,2.34,9.83,9.83,0,0,0-.4,2.65v.28a1,1,0,0,0,0,.17h0V21c0,.05,0,.09,0,.13s0,.11,0,.16v.13a.57.57,0,0,1,0,.13v.08h0v.15l0,.16a.68.68,0,0,0,0,.14v0l0,.16h0l0,.07a.69.69,0,0,0,0,.13c0,.15.08.32.12.47l0,.13h0A7.63,7.63,0,0,1,8.2,19.17h0a7.35,7.35,0,0,1,2.32-4"/><path class="cls-3" d="M20.05,23.05a11.24,11.24,0,0,1-2.46,4.52,7.53,7.53,0,0,1-4.75-.26h0a7.38,7.38,0,0,0,4.52-4.84,6.87,6.87,0,0,0,.15-3.27h0a7.5,7.5,0,0,1,2.54,3.84"/><path class="cls-3" d="M19.83,17.64a10.62,10.62,0,0,1,.55,2.79h0a10.54,10.54,0,0,0-.55-2.79M17.5,19.2ZM20,23h0v0h0Z"/><path class="cls-3" d="M20.38,20.59v.11a1,1,0,0,1,0,.17V21s0,.08,0,.12,0,.11,0,.16v.14a.49.49,0,0,0,0,.12v.1s0,.09,0,.14l0,.16a.77.77,0,0,1,0,.15v0l0,.15h0l0,.07a.59.59,0,0,1,0,.13s0,.05,0,.08,0-.05,0-.08a.51.51,0,0,0,0-.13l0-.07h0l0-.15v0a.77.77,0,0,0,0-.15l0-.16c0-.05,0-.09,0-.14v-.1a.49.49,0,0,1,0-.12v-.14c0-.05,0-.1,0-.15s0-.09,0-.13v-.12a.86.86,0,0,0,0-.16v-.12"/><path class="cls-3" d="M19.83,17.64,17.5,19.2h0A7.53,7.53,0,0,1,20,23h0l0-.08.09-.4s0-.05,0-.08a.59.59,0,0,0,0-.13l0-.07h0l0-.15v0a.77.77,0,0,0,0-.15l0-.16,0-.14v-.1s0-.08,0-.12,0-.09,0-.14a.81.81,0,0,0,0-.16s0-.08,0-.12v-.12a.92.92,0,0,0,0-.16v-.27h0a10.61,10.61,0,0,0-.55-2.8M17.51,19.2h0Z"/><path class="cls-3" d="M17.63,20.52a7,7,0,0,1-.28,1.95,7.38,7.38,0,0,1-4.5,4.83h0a7.36,7.36,0,0,0,4.5-4.83,6.91,6.91,0,0,0,.28-1.95"/><polyline class="cls-3" points="12.85 27.3 12.85 27.3 12.85 27.3"/><polyline class="cls-3" points="12.85 27.3 12.85 27.3 12.85 27.3 12.85 27.3"/><path class="cls-3" d="M12.84,27.3h0"/><path class="cls-3" d="M17.5,19.2a7.38,7.38,0,0,1,.13,1.32,6.91,6.91,0,0,1-.28,1.95,7.36,7.36,0,0,1-4.5,4.83h0a9.13,9.13,0,0,0,2.92.53,5.73,5.73,0,0,0,1.83-.28,11.2,11.2,0,0,0,2.46-4.51v0a7.53,7.53,0,0,0-2.53-3.82Z"/></g></g></svg>
