<?xml version="1.0" encoding="utf-8" ?><svg id="Layer_1" data-name="Layer 1" xmlns="http://www.w3.org/2000/svg" xmlns:xlink="http://www.w3.org/1999/xlink" viewBox="0 0 110 45"><defs><style>.cls-1{fill:none;}.cls-2{clip-path:url(#clip-path);}.cls-3{fill:#401663;}.cls-4{fill:#fff;}</style><clipPath id="clip-path"><rect class="cls-1" width="110" height="45"/></clipPath></defs><g class="cls-2"><g class="cls-2"><path class="cls-3" d="M71.38,14.28,56.55,3.87a2.84,2.84,0,0,0-3.1,0L38.62,14.28a2.4,2.4,0,0,0-1.16,2.23V38.86a2.73,2.73,0,0,0,2.72,2.73H69.82a2.73,2.73,0,0,0,2.72-2.73V16.51a2.4,2.4,0,0,0-1.16-2.23"/><path class="cls-4" d="M47.75,28.8c0,2.88-1,3.9-3.67,3.9h-.61c-.29,0-.38-.08-.38-.35v-8c0-.18.06-.25.25-.26a6.65,6.65,0,0,1,.68,0c2.89,0,3.73.87,3.73,3.88Zm2.73-.95c0-2.22-.51-3.66-1.65-4.66S46.29,21.85,44,21.85c-1.06,0-2,0-2.77.12-.58.06-.77.29-.77.92V34c0,.64.19.86.78.91l1,0h1.2c2.66,0,4-.34,5.26-1.31s1.77-2.44,1.77-4.6Z"/><path class="cls-4" d="M54.07,24.19c0-.16.1-.18.13-.18a8.62,8.62,0,0,1,1,0,2.69,2.69,0,0,1,1.81.41,1.67,1.67,0,0,1,.48,1.45v.25c0,1.53-.61,2.07-2.35,2.07H54.07Zm-2,10.7h1.42c.49,0,.63-.13.63-.59V30.41h1a6,6,0,0,0,3.85-1,3.89,3.89,0,0,0,1.31-3.23v-.35a3.64,3.64,0,0,0-1.2-3.13c-.81-.65-2-.93-3.88-.93a25.06,25.06,0,0,0-3,.12c-.59.06-.78.29-.78.92V34.3c0,.46.14.59.63.59"/><path class="cls-4" d="M69.26,28.52a4,4,0,0,0-2.48-1.23L65.34,27a2.43,2.43,0,0,1-1.27-.5,1.19,1.19,0,0,1-.29-.94v-.16a1.28,1.28,0,0,1,.41-1.1A2.74,2.74,0,0,1,65.71,24a8.73,8.73,0,0,1,2.52.45.89.89,0,0,0,.3.06.41.41,0,0,0,.43-.37l.3-1.24c.08-.4,0-.57-.4-.68a12,12,0,0,0-3.2-.46,5.5,5.5,0,0,0-3.31.77,3.24,3.24,0,0,0-1.18,2.79v.26a3.63,3.63,0,0,0,.77,2.47,4.14,4.14,0,0,0,2.45,1.15l1.36.29a2.35,2.35,0,0,1,1.29.58,1.69,1.69,0,0,1,.21,1v.15c0,.66-.09,1-.36,1.19a2.8,2.8,0,0,1-1.85.41,10.4,10.4,0,0,1-2.94-.6.46.46,0,0,0-.68.39l-.21,1.14c-.1.46.1.62.48.74a12.86,12.86,0,0,0,3.41.57c1.81,0,2.94-.29,3.67-1a3.87,3.87,0,0,0,1.1-3v-.3a3.62,3.62,0,0,0-.61-2.33"/><path class="cls-4" d="M41.56,37.78c0,.4-.13.54-.51.54H41s-.06,0-.06-.06V37.17s0-.05,0-.05H41c.41,0,.52.13.52.54ZM41,36.84l-.38,0c-.07,0-.09,0-.09.11v1.51c0,.08,0,.11.09.11H41a1,1,0,0,0,.71-.18.74.74,0,0,0,.24-.62v-.15a.79.79,0,0,0-.22-.63,1,1,0,0,0-.66-.18"/><path class="cls-4" d="M42.85,37.84h-.39a.43.43,0,0,1,.07-.28.21.21,0,0,1,.15-.05.22.22,0,0,1,.16.05s0,.12,0,.24,0,0,0,0m-.16-.58c-.41,0-.55.22-.55.64V38a.65.65,0,0,0,.14.51.57.57,0,0,0,.45.14,1.18,1.18,0,0,0,.39-.07c.05,0,.06,0,.05-.07l0-.13c0-.06,0-.06-.07-.05a.72.72,0,0,1-.29.06.4.4,0,0,1-.24,0,.3.3,0,0,1-.06-.22h.67s.07,0,.07-.08v-.18c0-.26-.05-.37-.14-.45a.49.49,0,0,0-.38-.12"/><path class="cls-4" d="M44.3,38a.45.45,0,0,1-.07.31.26.26,0,0,1-.19.07.31.31,0,0,1-.19,0,.24.24,0,0,1-.05-.18v-.36a.26.26,0,0,1,.05-.19.24.24,0,0,1,.19-.06.22.22,0,0,1,.19.07.45.45,0,0,1,.07.31Zm-.2-.72a.5.5,0,0,0-.37.13h0v-.07s0,0-.07,0h-.1a.05.05,0,0,0-.06.06V39c0,.05,0,.06.07.06h.17c.06,0,.08,0,.08-.06v-.46a.51.51,0,0,0,.27.07.52.52,0,0,0,.41-.14.73.73,0,0,0,.14-.5v-.1a.66.66,0,0,0-.12-.48.5.5,0,0,0-.4-.14"/><path class="cls-4" d="M45.64,38a.53.53,0,0,1-.06.33.24.24,0,0,1-.36,0,.62.62,0,0,1-.06-.33v-.05a.62.62,0,0,1,.06-.33.27.27,0,0,1,.36,0,.53.53,0,0,1,.06.33Zm-.24-.7a.55.55,0,0,0-.43.15.75.75,0,0,0-.13.49V38a.69.69,0,0,0,.13.48.66.66,0,0,0,.86,0A.69.69,0,0,0,46,38V37.9a.75.75,0,0,0-.14-.49.55.55,0,0,0-.43-.15"/><path class="cls-4" d="M46.8,37.81l-.16,0c-.09,0-.14,0-.14-.12v0s0-.07,0-.08.07,0,.16,0a1,1,0,0,1,.26,0s.06,0,.07,0l0-.15s0,0,0-.06a1.12,1.12,0,0,0-.36-.06.54.54,0,0,0-.36.09.33.33,0,0,0-.12.29v0a.34.34,0,0,0,.08.25.41.41,0,0,0,.23.12l.17,0c.11,0,.15.06.15.14v0a.12.12,0,0,1,0,.11.39.39,0,0,1-.18,0,.92.92,0,0,1-.32-.07.05.05,0,0,0-.08,0l0,.13s0,.06,0,.08a1.07,1.07,0,0,0,.41.08.58.58,0,0,0,.4-.12.39.39,0,0,0,.1-.29v0a.33.33,0,0,0-.06-.23.43.43,0,0,0-.27-.14"/><path class="cls-4" d="M47.65,37.28h-.17c-.06,0-.07,0-.07.07v1.18s0,.07.07.07h.17c.06,0,.08,0,.08-.07V37.35c0-.06,0-.07-.08-.07"/><path class="cls-4" d="M47.57,36.75h0a.18.18,0,0,0-.19.19h0c0,.13.05.19.19.19h0a.17.17,0,0,0,.19-.19h0a.17.17,0,0,0-.19-.19"/><path class="cls-4" d="M48.75,38.33h-.13c-.08,0-.11,0-.13,0s0-.06,0-.16v-.58h.26c.05,0,.06,0,.06-.07v-.13c0-.05,0-.07-.06-.07h-.26V37s0-.07-.08-.07h-.17c-.06,0-.07,0-.07.07v.28l-.18,0s0,0,0,.06v.12s0,0,.06,0h.16v.64a.41.41,0,0,0,.1.32.44.44,0,0,0,.31.09h.2c.06,0,.06,0,.06-.07V38.4c0-.06,0-.07-.06-.07"/><path class="cls-4" d="M50.5,37.41c0,.22-.09.29-.33.29H50v-.55s0,0,0,0h.14c.14,0,.21,0,.26.06s.07.09.07.2Zm-.33-.58-.42,0c-.07,0-.09,0-.09.11v1.57c0,.06,0,.07.07.07h.2c.06,0,.07,0,.07-.07V38h.16a.79.79,0,0,0,.51-.14.53.53,0,0,0,.18-.43v-.05a.48.48,0,0,0-.16-.41.79.79,0,0,0-.52-.13"/><path class="cls-4" d="M51.77,37.28h0a.37.37,0,0,0-.36.17h0v-.12s0,0-.07,0h-.1a.05.05,0,0,0-.06.06v1.19s0,.07.07.07h.17c.06,0,.08,0,.08-.07v-.69c0-.14,0-.18.06-.22a.27.27,0,0,1,.22-.07h.05s.07,0,.07-.06v-.15c0-.05,0-.06-.07-.06"/><path class="cls-4" d="M52.79,38a.53.53,0,0,1-.06.33.24.24,0,0,1-.36,0,.62.62,0,0,1-.06-.33v-.05a.62.62,0,0,1,.06-.33.27.27,0,0,1,.36,0,.53.53,0,0,1,.06.33Zm-.24-.7a.55.55,0,0,0-.43.15.75.75,0,0,0-.13.49V38a.69.69,0,0,0,.13.48.66.66,0,0,0,.86,0,.69.69,0,0,0,.14-.48V37.9a.75.75,0,0,0-.14-.49.55.55,0,0,0-.43-.15"/><path class="cls-4" d="M54.07,38.33h-.13c-.07,0-.1,0-.12,0s0-.06,0-.16v-.58h.27s.06,0,.06-.07v-.13c0-.05,0-.07-.06-.07h-.27V37s0-.07-.07-.07h-.17c-.06,0-.08,0-.08.07v.28l-.17,0s0,0,0,.06v.12s0,0,0,0h.16v.64a.36.36,0,0,0,.42.41h.19c.06,0,.07,0,.07-.07V38.4c0-.06,0-.07-.07-.07"/><path class="cls-4" d="M55,37.84h-.4a.43.43,0,0,1,.07-.28.23.23,0,0,1,.15-.05.22.22,0,0,1,.16.05s0,.12,0,.24,0,0,0,0m-.17-.58c-.41,0-.55.22-.55.64V38a.69.69,0,0,0,.14.51.57.57,0,0,0,.45.14,1.18,1.18,0,0,0,.39-.07s.06,0,0-.07l0-.13c0-.06,0-.06-.08-.05a.72.72,0,0,1-.29.06.4.4,0,0,1-.24,0,.3.3,0,0,1-.06-.22h.67c.05,0,.07,0,.07-.08v-.18c0-.26,0-.37-.14-.45a.49.49,0,0,0-.38-.12"/><path class="cls-4" d="M56.15,37.26a.63.63,0,0,0-.41.12.66.66,0,0,0-.16.51V38a.68.68,0,0,0,.15.53.61.61,0,0,0,.39.12.88.88,0,0,0,.39-.07c.06,0,.07,0,.06-.09l0-.13s0,0-.08,0a.6.6,0,0,1-.27.06.27.27,0,0,1-.21-.07.55.55,0,0,1-.06-.34v0c0-.16,0-.26.07-.33a.26.26,0,0,1,.18-.06.49.49,0,0,1,.28.09s.07,0,.08,0l.07-.13a.06.06,0,0,0,0-.09.76.76,0,0,0-.41-.11"/><path class="cls-4" d="M57.57,38.33h-.13a.16.16,0,0,1-.13,0,.25.25,0,0,1,0-.16v-.58h.27s.05,0,.05-.07v-.13c0-.05,0-.07-.05-.07h-.27V37s0-.07-.08-.07H57c-.05,0-.07,0-.07.07v.28l-.17,0s0,0,0,.06v.12s0,0,0,0H57v.64a.41.41,0,0,0,.1.32.45.45,0,0,0,.32.09h.19c.06,0,.06,0,.06-.07V38.4c0-.06,0-.07-.06-.07"/><path class="cls-4" d="M58,36.75h0a.17.17,0,0,0-.19.19h0c0,.13.05.19.19.19h0a.17.17,0,0,0,.19-.19h0a.17.17,0,0,0-.19-.19"/><path class="cls-4" d="M58.11,37.28h-.17c-.06,0-.08,0-.08.07v1.18s0,.07.08.07h.17c.06,0,.07,0,.07-.07V37.35c0-.06,0-.07-.07-.07"/><path class="cls-4" d="M59.26,38a.64.64,0,0,1,0,.33.21.21,0,0,1-.18.08.18.18,0,0,1-.18-.08.53.53,0,0,1-.06-.33v-.05a.53.53,0,0,1,.06-.33s.08-.07.18-.07a.2.2,0,0,1,.18.07.64.64,0,0,1,0,.33Zm-.23-.7a.53.53,0,0,0-.43.15.75.75,0,0,0-.14.49V38a.69.69,0,0,0,.14.48.55.55,0,0,0,.43.16.54.54,0,0,0,.42-.16.69.69,0,0,0,.14-.48V37.9a.75.75,0,0,0-.14-.49.52.52,0,0,0-.42-.15"/><path class="cls-4" d="M60.48,37.26a.45.45,0,0,0-.36.13h0l0-.06s0,0-.07,0h-.1a.05.05,0,0,0-.06.06v1.19s0,.07.08.07h.17s.07,0,.07-.07v-.78c0-.11,0-.16.06-.19a.25.25,0,0,1,.17-.05.23.23,0,0,1,.18.06s0,.1,0,.21v.75s0,.07.08.07h.17c.06,0,.07,0,.07-.07V37.8a.66.66,0,0,0-.07-.36.45.45,0,0,0-.41-.18"/><path class="cls-4" d="M62.57,37.59l-.19,0a.3.3,0,0,1-.18-.08.14.14,0,0,1-.05-.13v0a.22.22,0,0,1,.06-.16.47.47,0,0,1,.22,0,1.51,1.51,0,0,1,.35.06s.07,0,.08,0l0-.17s0-.06,0-.08a2,2,0,0,0-.43-.06.68.68,0,0,0-.44.11.42.42,0,0,0-.16.37v0a.52.52,0,0,0,.1.33.56.56,0,0,0,.33.15l.19,0a.3.3,0,0,1,.18.09.22.22,0,0,1,0,.14v0c0,.08,0,.14,0,.17a.39.39,0,0,1-.26.06,1.42,1.42,0,0,1-.41-.08,0,0,0,0,0-.07,0l0,.16s0,.07.05.08a1.78,1.78,0,0,0,.47.08.68.68,0,0,0,.49-.13A.51.51,0,0,0,63,38.1v0a.46.46,0,0,0-.08-.31.51.51,0,0,0-.33-.16"/><path class="cls-4" d="M63.91,37.84h-.4a.43.43,0,0,1,.07-.28.21.21,0,0,1,.15-.05.22.22,0,0,1,.16.05s0,.12,0,.24,0,0,0,0m-.17-.58c-.41,0-.55.22-.55.64V38a.65.65,0,0,0,.14.51.57.57,0,0,0,.45.14,1.18,1.18,0,0,0,.39-.07s.06,0,0-.07l0-.13c0-.06,0-.06-.07-.05a.72.72,0,0,1-.29.06.4.4,0,0,1-.24,0,.3.3,0,0,1-.06-.22h.67s.07,0,.07-.08v-.18c0-.26-.05-.37-.14-.45a.49.49,0,0,0-.38-.12"/><path class="cls-4" d="M65.18,37.28h0a.37.37,0,0,0-.36.17h0v-.12s0,0-.07,0h-.1a.05.05,0,0,0-.06.06v1.19s0,.07.07.07h.17c.06,0,.08,0,.08-.07v-.69c0-.14,0-.18.06-.22a.27.27,0,0,1,.22-.07h.05s.07,0,.07-.06v-.15c0-.05,0-.06-.07-.06"/><path class="cls-4" d="M66.52,37.28h-.18s-.06,0-.07.06c-.08.31-.18.65-.28.92h0c-.09-.27-.19-.61-.27-.92a.07.07,0,0,0-.08-.06h-.18s-.07,0-.06.06a10.39,10.39,0,0,0,.39,1.19.1.1,0,0,0,.11.07h.19a.1.1,0,0,0,.11-.07,10.39,10.39,0,0,0,.39-1.19s0-.06-.06-.06"/><path class="cls-4" d="M67,37.28h-.17s-.07,0-.07.07v1.18s0,.07.07.07H67c.06,0,.08,0,.08-.07V37.35c0-.06,0-.07-.08-.07"/><path class="cls-4" d="M67,36.75h0a.18.18,0,0,0-.19.19h0a.17.17,0,0,0,.19.19h0a.17.17,0,0,0,.18-.19h0a.17.17,0,0,0-.18-.19"/><path class="cls-4" d="M67.94,37.26a.58.58,0,0,0-.4.12.63.63,0,0,0-.16.51V38a.68.68,0,0,0,.15.53.56.56,0,0,0,.38.12.88.88,0,0,0,.39-.07c.06,0,.07,0,.06-.09l0-.13s0,0-.08,0a.6.6,0,0,1-.27.06.27.27,0,0,1-.21-.07A.55.55,0,0,1,67.7,38v0c0-.16,0-.26.07-.33a.28.28,0,0,1,.18-.06.55.55,0,0,1,.29.09,0,0,0,0,0,.07,0l.07-.13s0-.07,0-.09a.76.76,0,0,0-.41-.11"/><path class="cls-4" d="M69.28,37.84h-.39a.43.43,0,0,1,.07-.28.21.21,0,0,1,.15-.05.23.23,0,0,1,.16.05.43.43,0,0,1,0,.24s0,0,0,0m-.16-.58c-.41,0-.55.22-.55.64V38a.65.65,0,0,0,.14.51.57.57,0,0,0,.45.14,1.18,1.18,0,0,0,.39-.07s.06,0,0-.07l0-.13c0-.06,0-.06-.07-.05a.72.72,0,0,1-.29.06.38.38,0,0,1-.24,0s-.06-.11-.07-.22h.67c.06,0,.08,0,.08-.08v-.18c0-.26,0-.37-.14-.45a.52.52,0,0,0-.38-.12"/></g></g></svg>
