<?xml version="1.0" encoding="utf-8" ?><svg id="Layer_1" data-name="Layer 1" xmlns="http://www.w3.org/2000/svg" xmlns:xlink="http://www.w3.org/1999/xlink" viewBox="0 0 110 45"><defs><style>.cls-1{fill:none;}.cls-2{clip-path:url(#clip-path);}.cls-3{fill:#401663;}.cls-4{fill:#fff;}</style><clipPath id="clip-path"><rect class="cls-1" width="110" height="45"/></clipPath></defs><g class="cls-2"><g class="cls-2"><path class="cls-3" d="M96.22,35.43a1.38,1.38,0,0,1-1.38,1.38H15.16a1.38,1.38,0,0,1-1.38-1.38V9.57a1.38,1.38,0,0,1,1.38-1.38H94.84a1.38,1.38,0,0,1,1.38,1.38"/><path class="cls-4" d="M51.11,22.24c-.67,0-.8,1-.8,1.86s.12,1.86.8,1.86.81-.95.81-1.86-.14-1.86-.81-1.86m0,4.64c-1.48,0-2.07-1.23-2.07-2.73s.59-2.74,2.07-2.74,2.08,1.24,2.08,2.74-.59,2.73-2.08,2.73"/><path class="cls-4" d="M58.66,26.8V23.88a.53.53,0,0,0-.6-.56.72.72,0,0,0-.53.2V26.8h-1.2V23.87c0-.33-.23-.55-.65-.55a1.17,1.17,0,0,0-.49.08v3.4H54V22.87a3.85,3.85,0,0,1,1.68-.31A1.8,1.8,0,0,1,57,23a2.09,2.09,0,0,1,1.38-.42,1.33,1.33,0,0,1,1.5,1.32V26.8"/><path class="cls-4" d="M62.42,23.27a.8.8,0,0,0-.44.1v2.72a1,1,0,0,0,.38.06c.61,0,.87-.54.87-1.47s-.17-1.41-.81-1.41m-.13,3.61a2.93,2.93,0,0,1-1.51-.31V20.74H62v2a1.73,1.73,0,0,1,.78-.15c1,0,1.66.78,1.66,2a2,2,0,0,1-2.13,2.28"/><path class="cls-4" d="M66.93,26.88c-1.17,0-1.75-.44-1.75-1.44v-2.8h1.21v2.88a.51.51,0,0,0,.57.55,1,1,0,0,0,.5-.1V22.64h1.21v3.92a4,4,0,0,1-1.74.32"/><path class="cls-4" d="M71.87,23.31a1.11,1.11,0,0,0-.33,0c-.66,0-.92.57-.92,1.42s.27,1.43.88,1.43a.71.71,0,0,0,.37-.07Zm-.39,3.57a1.91,1.91,0,0,1-2-2.13c0-1.34.76-2.16,1.83-2.16a2.43,2.43,0,0,1,.61.07V20.74h1.2v5.83a3.33,3.33,0,0,1-1.59.31"/><path class="cls-4" d="M75,26.87a2.32,2.32,0,0,1-1.22-.3l.31-.76a1.28,1.28,0,0,0,.74.24.48.48,0,0,0,.52-.46c0-.28-.15-.43-.54-.59-.76-.3-.93-.72-.93-1.16a1.29,1.29,0,0,1,1.39-1.28,2.16,2.16,0,0,1,1.2.3l-.3.69a1,1,0,0,0-.63-.22.43.43,0,0,0-.48.44c0,.27.21.43.53.57.81.34,1,.73,1,1.22,0,.73-.59,1.31-1.58,1.31"/><path class="cls-4" d="M82,26.8V23.88a.54.54,0,0,0-.61-.56.71.71,0,0,0-.52.2V26.8H79.62V23.87c0-.33-.23-.55-.65-.55a1.12,1.12,0,0,0-.48.08v3.4H77.28V22.87A3.9,3.9,0,0,1,79,22.56a1.82,1.82,0,0,1,1.32.42,2.06,2.06,0,0,1,1.37-.42,1.33,1.33,0,0,1,1.5,1.32V26.8"/><path class="cls-4" d="M86.21,24.62c-.73.07-1.2.24-1.2.9,0,.49.28.7.76.7a1,1,0,0,0,.44-.09Zm-.51,2.26c-1.2,0-1.82-.45-1.82-1.31,0-1.08,1.08-1.39,2.33-1.51v-.19c0-.43-.3-.56-.74-.56a2.64,2.64,0,0,0-1.08.26l-.26-.69a4,4,0,0,1,1.57-.32c.94,0,1.63.4,1.63,1.52v2.49a3.53,3.53,0,0,1-1.63.31"/><path class="cls-4" d="M90.58,26.8V23.89c0-.29-.13-.58-.62-.58a1.33,1.33,0,0,0-.51.09v3.4h-1.2V22.87A4.41,4.41,0,0,1,90,22.56c1.32,0,1.8.57,1.8,1.32V26.8"/></g><polyline class="cls-4" points="51.12 14.58 51.12 19.05 49.86 19.05 49.86 14.58 48.94 14.58 48.94 13.74 52.04 13.74 52.04 14.58"/><g class="cls-2"><path class="cls-4" d="M55.08,19V16.13c0-.33-.15-.59-.62-.59a1,1,0,0,0-.51.12V19H52.74V13.75H54V15a2.22,2.22,0,0,1,.89-.19c1,0,1.44.6,1.44,1.3V19"/><path class="cls-4" d="M58.88,15.52c-.5,0-.8.43-.77,1.29l1.46-.22c0-.74-.25-1.07-.69-1.07m-.69,1.87a.92.92,0,0,0,1,.92,2.39,2.39,0,0,0,1.09-.23l.27.75a3.31,3.31,0,0,1-1.49.3,1.93,1.93,0,0,1-2-2.17c0-1.3.68-2.15,1.87-2.15s1.82.82,1.77,2.23"/><path class="cls-4" d="M65,14.37a1.06,1.06,0,0,0-.38.06v1.9h.17c.79,0,1.08-.29,1.08-1s-.24-1-.87-1m-.21,2.7-.17,0v2H63.38V14A3.91,3.91,0,0,1,65,13.66c1.47,0,2,.75,2,1.7s-.66,1.86-2.26,1.71"/><path class="cls-4" d="M69.77,15.68a1,1,0,0,0-.8,0v3.4H67.76V15.12A4.59,4.59,0,0,1,70,14.83"/><path class="cls-4" d="M72.08,15.56c-.53,0-.64.65-.64,1.39s.12,1.36.64,1.36.64-.61.64-1.36-.1-1.39-.64-1.39m0,3.57c-1.2,0-1.84-.92-1.84-2.16s.64-2.16,1.83-2.16,1.85.91,1.85,2.16-.63,2.16-1.84,2.16"/><path class="cls-4" d="M76.26,15.52a.94.94,0,0,0-.37.07v2.75a.91.91,0,0,0,.32.06c.64,0,.93-.51.93-1.44s-.24-1.44-.88-1.44m.23,3.59a2.23,2.23,0,0,1-.6-.07v1.67h-1.2V15.12a3.44,3.44,0,0,1,1.59-.31,1.92,1.92,0,0,1,2,2.13c0,1.34-.75,2.17-1.84,2.17"/><path class="cls-4" d="M80.78,15.52c-.5,0-.81.43-.77,1.29l1.45-.22c0-.74-.24-1.07-.68-1.07m-.69,1.87a.91.91,0,0,0,1,.92,2.31,2.31,0,0,0,1.08-.23l.27.75a3.24,3.24,0,0,1-1.49.3,1.93,1.93,0,0,1-2-2.17c0-1.3.68-2.15,1.88-2.15s1.82.82,1.76,2.23"/><path class="cls-4" d="M85.36,15.68a1,1,0,0,0-.81,0v3.4h-1.2V15.12a4.52,4.52,0,0,1,2.23-.29"/><path class="cls-4" d="M87.62,19.12a1.14,1.14,0,0,1-1.25-1.21V15.67h-.46v-.78h.46V14l1.2-.31v1.2h.65v.78h-.65v2.15c0,.31.12.48.39.48a.82.82,0,0,0,.26,0V19a1.48,1.48,0,0,1-.6.12"/><path class="cls-4" d="M90.54,20.71H89.27l.67-1.66-1.35-4.16h1.27l.57,2.41a3,3,0,0,1,.09.66h0a5.15,5.15,0,0,1,.12-.66l.63-2.41h1.13"/><path class="cls-4" d="M46.2,30.55,44.45,28H33a1.46,1.46,0,0,1-1.28-2.42l5.56-8.16L33.56,12a1.75,1.75,0,0,0-3.1,0L17.81,30.55C17,31.8,17.5,32.82,19,32.82H45c1.51,0,2-1,1.2-2.27"/><path class="cls-4" d="M39.66,16.48a.7.7,0,0,1,.57.36l6.28,9.22c.15.23.2.43.13.56s-.26.2-.53.2H33.19c-.26,0-.46-.07-.53-.2a.6.6,0,0,1,.13-.55L38,18.46l1.11-1.62a.7.7,0,0,1,.58-.36m7.25,9.31-6.28-9.22a1.19,1.19,0,0,0-1-.58.93.93,0,0,0-.24,0,1.26,1.26,0,0,0-.74.55l-1,1.46-5.29,7.76a.9.9,0,0,0,.8,1.52H46.11A1.08,1.08,0,0,0,47,27a1.25,1.25,0,0,0,.09-.12,1,1,0,0,0-.16-1.05"/></g></g></svg>
